<?xml version="1.0" standalone="no"?>
<!DOCTYPE svg PUBLIC "-//W3C//DTD SVG 20010904//EN"
 "http://www.w3.org/TR/2001/REC-SVG-20010904/DTD/svg10.dtd">
<svg version="1.0" xmlns="http://www.w3.org/2000/svg"
 width="200.000000pt" height="200.000000pt" viewBox="0 0 200.000000 200.000000"
 preserveAspectRatio="xMidYMid meet">
<metadata>
Created by potrace 1.11, written by Peter Selinger 2001-2013
</metadata>
<g transform="translate(0.000000,200.000000) scale(0.100000,-0.100000)"
fill="#000000" stroke="none">
<path d="M375 1822 c-37 -5 -55 -19 -55 -42 0 -10 -6 -23 -14 -29 -11 -9 -13
-26 -9 -67 4 -37 2 -54 -6 -54 -6 0 -11 12 -11 27 0 14 -3 24 -6 21 -3 -4 -2
-28 2 -55 7 -41 9 -45 15 -23 8 28 7 36 14 -105 15 -289 20 -334 39 -348 11
-8 16 -19 12 -25 -11 -18 4 -37 15 -21 9 13 2 -180 -7 -209 -2 -7 3 -38 12
-70 9 -31 19 -93 24 -138 4 -45 15 -95 24 -112 23 -44 21 -99 -4 -112 -11 -6
-20 -17 -20 -25 0 -8 -5 -15 -12 -15 -15 0 -128 -121 -128 -137 0 -7 -6 -13
-13 -13 -14 0 -39 -45 -63 -112 l-13 -38 754 0 c427 0 755 4 755 9 0 5 -7 14
-15 21 -8 7 -15 19 -15 26 0 8 -4 14 -10 14 -5 0 -10 8 -10 17 0 16 -17 54
-78 176 l-23 47 30 6 c30 6 48 29 30 39 -5 4 -7 11 -3 16 3 5 8 21 10 36 3 15
10 33 16 40 5 7 21 54 34 105 31 120 42 324 19 368 -19 37 -19 74 0 90 8 7 15
19 15 27 0 7 7 16 15 19 8 4 15 16 16 28 0 20 1 20 8 1 5 -12 8 6 7 50 0 39
-5 74 -11 78 -7 6 -6 10 2 13 8 4 10 17 7 37 -4 24 -3 28 5 17 15 -22 25 -5
14 27 -11 34 -5 152 7 133 12 -20 5 102 -7 124 -6 10 -8 26 -6 36 8 29 -95 57
-112 30 -3 -5 -18 -10 -33 -10 -27 -1 -89 -29 -64 -30 7 0 10 -5 6 -11 -3 -6
-17 -8 -30 -5 -25 7 -34 -8 -11 -17 7 -4 3 -8 -10 -12 -14 -5 -23 -15 -23 -27
0 -10 -3 -17 -8 -15 -4 3 -21 -15 -37 -39 -17 -24 -35 -42 -42 -39 -7 2 -15
-1 -19 -7 -4 -7 -3 -8 4 -4 7 4 12 2 12 -4 0 -6 -7 -13 -15 -16 -8 -3 -23 -21
-34 -40 -13 -22 -25 -32 -35 -28 -13 5 -77 -31 -84 -48 -5 -11 -100 -10 -120
1 -37 19 -99 23 -115 7 -21 -22 -97 -28 -122 -10 -10 8 -26 14 -35 14 -22 0
-70 51 -70 74 0 12 -5 16 -16 12 -12 -5 -14 -1 -9 15 5 15 4 19 -4 15 -6 -4
-11 -1 -11 6 0 7 -10 18 -22 23 -12 6 -26 19 -32 30 -6 11 -15 23 -19 26 -4 3
-7 10 -6 15 3 20 -2 28 -10 15 -15 -24 -72 46 -64 78 5 22 4 24 -8 14 -11 -9
-20 -6 -42 13 -16 14 -25 29 -21 36 5 8 0 9 -14 6 -15 -4 -22 -2 -22 8 0 19
-29 30 -65 26z"/>
<path d="M1520 1760 c0 -13 11 -13 30 0 12 8 11 10 -7 10 -13 0 -23 -4 -23
-10z"/>
<path d="M1281 1514 c0 -11 3 -14 6 -6 3 7 2 16 -1 19 -3 4 -6 -2 -5 -13z"/>
<path d="M1752 1490 c0 -14 2 -19 5 -12 2 6 2 18 0 25 -3 6 -5 1 -5 -13z"/>
<path d="M1745 1260 c-4 -17 -5 -34 -2 -36 2 -3 7 10 11 27 3 18 4 34 2 36 -2
3 -7 -10 -11 -27z"/>
<path d="M322 1110 c0 -14 2 -19 5 -12 2 6 2 18 0 25 -3 6 -5 1 -5 -13z"/>
<path d="M1738 1030 c2 -22 8 -40 13 -40 5 0 9 18 9 40 0 26 -5 40 -13 40 -9
0 -11 -12 -9 -40z"/>
<path d="M320 840 c0 -5 9 -10 21 -10 11 0 17 5 14 10 -3 6 -13 10 -21 10 -8
0 -14 -4 -14 -10z"/>
<path d="M1636 525 c-3 -9 0 -15 9 -15 16 0 20 16 6 24 -5 3 -11 -1 -15 -9z"/>
</g>
</svg>
